<svg width="187" height="67" viewBox="0 0 187 67" fill="none" xmlns="http://www.w3.org/2000/svg">
<g clip-path="url(#clip0_1_778)">
<path d="M59.0699 14.3501C57.3299 13.7701 55.9499 12.9701 54.9399 11.9601C53.9299 10.9501 53.4199 9.73013 53.4199 8.29013C53.4199 6.85013 53.9199 5.67013 54.9399 4.65013C55.9499 3.63013 57.1699 3.13013 58.6099 3.13013C60.0499 3.13013 61.2599 3.63013 62.2799 4.65013C62.8399 5.19013 63.2299 5.80013 63.4399 6.47013L62.1999 6.96013C62.0199 6.46013 61.7199 6.00013 61.2999 5.58013C60.5499 4.85013 59.6599 4.48013 58.6099 4.48013C57.5599 4.48013 56.6599 4.85013 55.9199 5.59013C55.1699 6.33013 54.7999 7.23013 54.7999 8.29013C54.7999 9.35013 55.1699 10.2401 55.9199 10.9801C56.6099 11.6601 57.5699 12.2901 58.7999 12.8601C60.7599 13.4901 62.4099 14.4801 63.7399 15.8101C65.1599 17.2201 65.8699 18.9201 65.8699 20.9201C65.8699 22.9201 65.1599 24.6401 63.7399 26.0601C62.3199 27.4801 60.6099 28.1901 58.6099 28.1901C56.6099 28.1901 54.8999 27.4801 53.4799 26.0501C52.3499 24.9201 51.6699 23.6001 51.4399 22.1001L52.7399 21.6301C52.8799 22.9601 53.4499 24.1201 54.4399 25.1001C55.5899 26.2501 56.9799 26.8301 58.5999 26.8301C60.2199 26.8301 61.6299 26.2501 62.7799 25.1001C63.9299 23.9501 64.5099 22.5501 64.5099 20.9201C64.5099 19.2901 63.9299 17.9101 62.7799 16.7601C61.7699 15.7501 60.5299 14.9401 59.0599 14.3401L59.0699 14.3501Z" fill="white"/>
<path d="M80.7599 18.5201H72.2799L68.8699 27.9001H67.3999L76.5199 2.84009L85.6299 27.9001H84.1799L80.7699 18.5201H80.7599ZM80.2599 17.1401L76.5299 6.87009L72.7999 17.1401H80.2699H80.2599Z" fill="white"/>
<path d="M108.57 24.8601C106.24 27.0801 103.46 28.2001 100.23 28.2001C96.7599 28.2001 93.7999 26.9801 91.3599 24.5301C88.9199 22.0901 87.6899 19.1301 87.6899 15.6601C87.6899 12.1901 88.9099 9.25013 91.3599 6.80013C93.7999 4.35013 96.7599 3.13013 100.23 3.13013C103.46 3.13013 106.28 4.22013 108.66 6.39013L107.62 7.34013C105.52 5.47013 103.05 4.54013 100.23 4.54013C97.1599 4.54013 94.5399 5.63013 92.3599 7.80013C90.1899 9.97013 89.0999 12.6001 89.0999 15.6701C89.0999 18.7401 90.1899 21.3801 92.3599 23.5501C94.5299 25.7201 97.1599 26.8101 100.23 26.8101C102.86 26.8101 105.18 26.0001 107.19 24.3801V16.9101H108.57V24.8701V24.8601Z" fill="white"/>
<path d="M118.82 19.4002C118.69 19.4102 118.55 19.4202 118.41 19.4202H114.25V27.9102H112.87V3.42017H119.3C121.17 3.68017 122.75 4.46017 124.06 5.76017C125.62 7.32017 126.4 9.20017 126.4 11.4102C126.4 13.6202 125.62 15.5102 124.06 17.0702C122.98 18.1502 121.74 18.8602 120.34 19.2002L125.99 27.9102H124.29L118.83 19.4002H118.82ZM114.24 4.81017V18.0202H118.4C120.22 18.0202 121.77 17.3702 123.06 16.0802C124.35 14.7902 125 13.2302 125 11.4002C125 9.57017 124.35 8.02017 123.06 6.73017C121.77 5.44017 120.22 4.80017 118.4 4.80017H114.24V4.81017Z" fill="white"/>
<path d="M141.37 18.5201H132.89L129.48 27.9001H128.01L137.13 2.84009L146.24 27.9001H144.79L141.38 18.5201H141.37ZM140.87 17.1401L137.14 6.87009L133.41 17.1401H140.88H140.87Z" fill="white"/>
<path d="M150.67 3.45017H150.78C154.81 3.45017 157.93 4.56017 160.15 6.79017C162.6 9.25017 163.82 12.2102 163.82 15.6702C163.82 19.1302 162.6 22.1002 160.15 24.5502C157.94 26.7702 154.81 27.8902 150.78 27.8902H150.67V27.9202H149.29V3.42017H150.67V3.45017ZM150.67 4.86017V26.4902H150.78C154.41 26.4902 157.2 25.5102 159.15 23.5502C161.32 21.3802 162.41 18.7502 162.41 15.6702C162.41 12.5902 161.32 9.97017 159.15 7.79017C157.2 5.84017 154.41 4.87017 150.78 4.87017H150.67V4.86017Z" fill="white"/>
<path d="M178.71 18.5201H170.23L166.82 27.9001H165.35L174.47 2.84009L183.58 27.9001H182.13L178.72 18.5201H178.71ZM178.21 17.1401L174.48 6.87009L170.75 17.1401H178.22H178.21Z" fill="white"/>
<path d="M68.23 34.5V38.19H58.21V46.9H68.23V50.59H58.21V63H54.52V34.51H68.23V34.5Z" fill="white"/>
<path d="M82.0599 34.5L92.4199 62.99H88.4999L84.8299 52.91H77.2799L73.6299 62.99H69.6899L80.0499 34.5H82.0399H82.0599ZM83.4999 49.23L81.0599 42.55L78.6399 49.23H83.4999Z" fill="white"/>
<path d="M100.22 34.5L109.46 50.47L118.67 34.5H122.04V62.99H118.35V42.41L109.46 57.79L100.54 42.41V62.99H96.8501V34.5H100.22Z" fill="white"/>
<path d="M132.29 34.5V62.99H128.6V34.5H132.29Z" fill="white"/>
<path d="M138.01 62.99V34.5H141.7V59.29H151.89V62.99H138.02H138.01Z" fill="white"/>
<path d="M160.19 34.5V62.99H156.5V34.5H160.19Z" fill="white"/>
<path d="M176.49 34.5L186.85 62.99H182.93L179.26 52.91H171.71L168.06 62.99H164.12L174.48 34.5H176.47H176.49ZM177.93 49.23L175.49 42.55L173.07 49.23H177.93Z" fill="white"/>
<path d="M34.14 -1.95317e-05H35.74C37.57 1.20998 38.18 2.68998 36.81 4.65998C36.53 5.05998 36.28 5.64998 36.37 6.08998C36.86 8.67998 37.45 11.26 38.01 13.84C38.24 13.84 38.47 13.82 38.7 13.81C38.7 11.57 38.65 9.32998 38.72 7.08998C38.76 5.87998 38.59 4.34998 39.25 3.56998C39.73 3.00998 41.95 3.00998 42.4 3.56998C43.04 4.35998 42.87 5.88998 42.88 7.10998C42.88 7.99998 42.43 8.89998 42.52 9.76998C43.26 16.46 44.46 23.11 44.8 29.81C45.21 37.96 44.61 46.16 45.06 54.31C45.27 58.12 46.14 62.26 50.47 64.23C50.84 64.4 50.63 65.82 50.69 66.65H0C0.14 65.78 0.35 64.14 0.41 64.15C2.41 64.32 2.56 62.65 3.24 61.48C5.21 58.1 6.02 54.54 5.82 50.58C5.56 45.26 5.49 39.91 5.82 34.6C6.31 26.74 7.2 18.91 7.98 11.07C8.14 9.43998 8.77 7.93998 7.53 6.31998C7.15 5.81998 7.76 4.01998 8.44 3.39998C8.99 2.90998 10.68 2.90998 11.25 3.39998C11.94 3.99998 12.59 5.77998 12.22 6.28998C10.24 8.98998 12.21 11.33 12.53 13.82C13.22 11.25 13.82 8.67998 14.31 6.07998C14.39 5.63998 14.15 5.04998 13.87 4.64998C12.51 2.67998 13.08 1.19998 14.94 -0.0200195H16.54C17.92 0.87998 19.07 2.29998 18.07 3.68998C16.78 5.46998 17.46 7.00998 17.71 8.67998C18.22 12.18 18.88 15.66 19.23 19.17C19.64 23.29 19.8 27.44 20.09 31.95C23.61 30 27.14 29.99 30.65 31.9C30.81 29.54 30.79 29.58 29.22 28.91C28.73 28.7 28.39 28.16 27.99 27.77C28.48 27.38 28.93 26.92 29.46 26.62C29.8 26.43 30.28 26.48 30.36 26.47C31.43 19.61 32.48 12.99 33.47 6.34998C33.55 5.80998 33.39 5.09998 33.08 4.65998C31.66 2.65998 32.38 1.21998 34.15 -0.0100195L34.14 -1.95317e-05ZM39.76 64.05C40.79 63.96 41.64 63.89 42.37 63.83C42.89 61.92 42.33 61 40.6 60.46C35.53 58.88 30.54 55.88 25.48 55.81C20.63 55.74 15.74 58.65 10.87 60.24C10.62 60.32 10.37 60.43 10.11 60.48C8.22 60.87 7.68 61.98 8.38 63.86H11.11C10.83 60.62 13.65 61.08 15.39 60.23C17.42 59.24 18.61 59.65 18.59 62.2C18.59 62.78 19.19 63.36 19.52 63.94C19.76 63.28 20.07 62.64 20.23 61.96C20.51 60.82 20.3 59.08 21 58.59C23.45 56.89 26.17 56.76 29.01 58.08C31.27 59.13 30.04 60.98 30.42 62.47C30.55 62.98 30.87 63.45 31.11 63.94C31.44 63.46 31.84 63.01 32.09 62.48C32.51 61.6 32.59 60.19 33.25 59.86C34.86 59.05 39.27 61.91 39.75 64.03L39.76 64.05ZM13.97 52.57C16.31 52.0833 17.4833 50.8633 17.49 48.91C17.49 46.96 17.49 45.01 17.49 43.06C17.49 40.65 17.49 38.23 17.49 35.82C17.13 35.64 16.77 35.47 16.42 35.29C15.61 36.28 14.14 37.24 14.09 38.27C13.84 42.95 13.98 47.65 13.98 52.58L13.97 52.57ZM36.71 52.51C36.71 48.04 36.57 43.62 36.76 39.21C36.87 36.56 35.69 35.81 33.19 35.86C33.19 40.31 33.35 44.66 33.13 48.99C33 51.62 34.17 52.44 36.71 52.5V52.51ZM11.62 37.01C10.03 38.19 8.3 38.85 8.27 39.59C8.03 44.56 8.14 49.55 8.14 54.53C8.38 54.67 8.63 54.82 8.87 54.96C9.79 54.21 11.45 53.5 11.49 52.71C11.73 47.81 11.61 42.89 11.61 37.01H11.62ZM39.04 37.89C39.04 42.31 39.18 46.64 38.99 50.95C38.87 53.5 39.85 54.52 42.56 54.46C42.56 50.01 42.42 45.59 42.61 41.18C42.72 38.63 41.55 37.92 39.04 37.88V37.89ZM25.6 37.87C18.77 40.09 19.41 45.26 20.07 50.61C21.93 50.07 23.69 49.15 25.45 49.16C27.18 49.16 28.91 50.09 30.69 50.63C31.17 44.7833 29.4733 40.5333 25.6 37.88V37.87ZM42.8 58.62C42.9 58.45 42.99 58.28 43.09 58.11C42.75 57.86 42.45 57.52 42.07 57.39C36.82 55.53 31.58 53.66 26.3 51.89C25.62 51.66 24.7 51.78 23.99 52.02C19.05 53.68 14.13 55.41 9.22 57.15C8.62 57.36 8.1 57.79 7.55 58.12C12.18 57.15 16.66 55.84 20.96 54.11C23.94 52.92 26.61 52.85 29.59 54.04C33.92 55.76 38.39 57.11 42.79 58.62H42.8ZM19.49 37.7L20.28 38.06C21.94 36.94 23.62 34.92 25.26 34.95C27.02 34.98 28.75 36.94 30.49 38.06C30.69 37.97 30.89 37.87 31.1 37.78C30.75 36.64 30.76 34.97 29.99 34.47C27.06 32.53 23.77 32.48 20.81 34.41C20 34.94 19.91 36.58 19.49 37.7ZM11.53 29.19C11.09 24.57 10.66 20.11 10.23 15.65C9.97 15.65 9.7 15.65 9.44 15.66C9.02 20.16 8.61 24.65 8.19 29.18H11.53V29.19ZM42.55 29.2C42.07 24.45 41.62 20.04 41.17 15.64C40.91 15.64 40.65 15.64 40.4 15.64C39.99 20.14 39.58 24.64 39.17 29.19H42.56L42.55 29.2ZM16.08 12.87C15.84 12.87 15.59 12.87 15.35 12.87C14.91 17.36 14.47 21.85 14.03 26.41H17.45C16.98 21.74 16.53 17.31 16.08 12.88V12.87ZM33.22 26.63C34.6 26.57 35.45 26.53 36.67 26.48C36.21 21.83 35.76 17.38 35.32 12.93C35.07 12.93 34.82 12.93 34.57 12.94C34.13 17.37 33.69 21.8 33.21 26.63H33.22ZM22.98 63.85H27.66C28.4 60.13 27.4 59.81 25.27 59.73C22.63 59.63 22.55 61.58 22.97 63.85H22.98ZM17.21 28.99C16.06 29.06 15.07 29.13 14.15 29.18V33.59C17.69 33.11 17.75 33.02 17.21 28.99ZM36.54 29.2H33.43C32.94 33.04 33 33.12 36.54 33.58V29.2ZM8.26 35.7C10.6 35.2733 11.6333 34.06 11.36 32.06H8.26V35.7ZM42.39 35.63V32.1H39.24C38.98 35.13 39.07 35.23 42.39 35.63Z" fill="white"/>
<path d="M25.35 47.6901C23.52 47.6901 22.04 46.2001 22.04 44.3801C22.04 42.5601 23.53 41.0701 25.35 41.0701C27.17 41.0701 28.66 42.5601 28.66 44.3801C28.66 46.2001 27.17 47.6901 25.35 47.6901ZM25.35 42.5701C24.36 42.5701 23.55 43.3801 23.55 44.3701C23.55 45.3601 24.36 46.1701 25.35 46.1701C26.34 46.1701 27.15 45.3601 27.15 44.3701C27.15 43.3801 26.34 42.5701 25.35 42.5701Z" fill="white"/>
</g>
<defs>
<clipPath id="clip0_1_778">
<rect width="186.85" height="66.65" fill="white"/>
</clipPath>
</defs>
</svg>

