<svg width="188" height="44" viewBox="0 0 188 44" fill="none" xmlns="http://www.w3.org/2000/svg">
<path d="M54.426 37.5345H5.238C5.10539 37.5345 4.97821 37.4818 4.88445 37.3881C4.79068 37.2943 4.738 37.1671 4.738 37.0345V14.4895C4.738 14.3569 4.79068 14.2297 4.88445 14.136C4.97821 14.0422 5.10539 13.9895 5.238 13.9895H54.426C54.5586 13.9895 54.6858 14.0422 54.7795 14.136C54.8733 14.2297 54.926 14.3569 54.926 14.4895V37.0345C54.926 37.1671 54.8733 37.2943 54.7795 37.3881C54.6858 37.4818 54.5586 37.5345 54.426 37.5345ZM5.738 36.5345H53.926V14.9895H5.738V36.5345Z" fill="white"/>
<path d="M13.064 37.5345H10.302C10.1781 37.5352 10.0583 37.4899 9.96594 37.4073C9.87356 37.3247 9.81513 37.2107 9.802 37.0875C9.402 33.4165 9.149 29.6815 9.041 25.9875C8.931 22.1535 8.975 18.2775 9.176 14.4655C9.18291 14.3376 9.23863 14.2173 9.33166 14.1293C9.42469 14.0413 9.54794 13.9923 9.676 13.9925H13.685C13.8131 13.9923 13.9363 14.0413 14.0293 14.1293C14.1224 14.2173 14.1781 14.3376 14.185 14.4655C14.385 18.2885 14.432 22.1655 14.32 25.9875C14.213 29.6805 13.958 33.4165 13.56 37.0875C13.5469 37.21 13.4891 37.3234 13.3975 37.4059C13.306 37.4884 13.1872 37.5342 13.064 37.5345ZM10.751 36.5345H12.615C12.982 33.0345 13.22 29.4735 13.321 25.9545C13.428 22.3175 13.391 18.6315 13.212 14.9895H10.153C9.976 18.6205 9.938 22.3075 10.044 25.9545C10.146 29.4745 10.385 33.0325 10.751 36.5345Z" fill="white"/>
<path d="M22.139 37.5345H19.376C19.2521 37.5352 19.1323 37.4899 19.0399 37.4073C18.9476 37.3247 18.8891 37.2107 18.876 37.0875C18.476 33.4135 18.224 29.6775 18.116 25.9875C18.005 22.1655 18.051 18.2875 18.251 14.4655C18.2579 14.3376 18.3136 14.2173 18.4067 14.1293C18.4997 14.0413 18.6229 13.9923 18.751 13.9925H22.761C22.8891 13.9923 23.0123 14.0413 23.1053 14.1293C23.1984 14.2173 23.2541 14.3376 23.261 14.4655C23.461 18.2775 23.506 22.1535 23.395 25.9875C23.287 29.6875 23.031 33.4195 22.635 37.0875C22.6219 37.21 22.5641 37.3234 22.4725 37.4059C22.381 37.4884 22.2622 37.5342 22.139 37.5345ZM19.825 36.5345H21.689C22.056 33.0345 22.294 29.4755 22.396 25.9545C22.502 22.3075 22.465 18.6205 22.287 14.9895H19.232C19.054 18.6315 19.017 22.3175 19.123 25.9545C19.221 29.4745 19.458 33.0305 19.825 36.5345Z" fill="white"/>
<path d="M31.213 37.5345H28.451C28.3271 37.5352 28.2073 37.4899 28.1149 37.4073C28.0226 37.3247 27.9641 37.2107 27.951 37.0875C27.551 33.4185 27.298 29.6825 27.19 25.9875C27.079 22.1655 27.125 18.2875 27.325 14.4655C27.3319 14.3376 27.3876 14.2173 27.4807 14.1293C27.5737 14.0413 27.6969 13.9923 27.825 13.9925H31.835C31.9631 13.9923 32.0863 14.0413 32.1793 14.1293C32.2724 14.2173 32.3281 14.3376 32.335 14.4655C32.535 18.2885 32.581 22.1655 32.47 25.9875C32.362 29.6875 32.106 33.4215 31.709 37.0875C31.6959 37.21 31.6381 37.3234 31.5465 37.4059C31.455 37.4884 31.3362 37.5342 31.213 37.5345ZM28.9 36.5345H30.764C31.131 33.0345 31.364 29.4775 31.471 25.9545C31.577 22.3175 31.54 18.6315 31.361 14.9895H28.303C28.124 18.6315 28.087 22.3175 28.193 25.9545C28.295 29.4745 28.532 33.0345 28.9 36.5345Z" fill="white"/>
<path d="M40.288 37.5345H37.525C37.4011 37.5352 37.2813 37.4899 37.1889 37.4073C37.0966 37.3247 37.0381 37.2107 37.025 37.0875C36.625 33.4165 36.373 29.6815 36.265 25.9875C36.154 22.1535 36.199 18.2775 36.399 14.4655C36.4059 14.3376 36.4616 14.2173 36.5547 14.1293C36.6477 14.0413 36.7709 13.9923 36.899 13.9925H40.909C41.0371 13.9923 41.1603 14.0413 41.2533 14.1293C41.3464 14.2173 41.4021 14.3376 41.409 14.4655C41.609 18.2885 41.655 22.1655 41.544 25.9875C41.436 29.6805 41.182 33.4165 40.784 37.0875C40.7709 37.21 40.7131 37.3234 40.6215 37.4059C40.53 37.4884 40.4112 37.5342 40.288 37.5345ZM37.975 36.5345H39.839C40.206 33.0345 40.439 29.4735 40.545 25.9545C40.651 22.3175 40.614 18.6315 40.436 14.9895H37.377C37.199 18.6205 37.162 22.3075 37.268 25.9545C37.37 29.4745 37.608 33.0325 37.975 36.5345Z" fill="white"/>
<path d="M49.362 37.5345H46.6C46.4761 37.5352 46.3563 37.4899 46.2639 37.4073C46.1716 37.3247 46.1131 37.2107 46.1 37.0875C45.7 33.4135 45.447 29.6775 45.34 25.9875C45.228 22.1655 45.274 18.2875 45.475 14.4655C45.4819 14.3376 45.5376 14.2173 45.6307 14.1293C45.7237 14.0413 45.8469 13.9923 45.975 13.9925H49.984C50.1121 13.9923 50.2353 14.0413 50.3283 14.1293C50.4214 14.2173 50.4771 14.3376 50.484 14.4655C50.684 18.2775 50.729 22.1535 50.619 25.9875C50.511 29.6875 50.255 33.4195 49.858 37.0875C49.8449 37.21 49.7871 37.3234 49.6955 37.4059C49.604 37.4884 49.4852 37.5342 49.362 37.5345ZM47.049 36.5345H48.913C49.279 33.0345 49.513 29.4755 49.62 25.9545C49.726 22.3075 49.688 18.6205 49.511 14.9895H46.452C46.273 18.6315 46.236 22.3175 46.343 25.9545C46.444 29.4745 46.682 33.0305 47.049 36.5345Z" fill="white"/>
<path d="M57.144 40.7415H2.52C2.38739 40.7415 2.26021 40.6888 2.16645 40.5951C2.07268 40.5013 2.02 40.3741 2.02 40.2415V37.0345C2.02 36.9019 2.07268 36.7747 2.16645 36.681C2.26021 36.5872 2.38739 36.5345 2.52 36.5345H57.144C57.2766 36.5345 57.4038 36.5872 57.4976 36.681C57.5913 36.7747 57.644 36.9019 57.644 37.0345V40.2415C57.644 40.3741 57.5913 40.5013 57.4976 40.5951C57.4038 40.6888 57.2766 40.7415 57.144 40.7415ZM3.02 39.7415H56.644V37.5345H3.02V39.7415Z" fill="white"/>
<path d="M57.144 14.9895H2.52C2.38739 14.9895 2.26021 14.9368 2.16645 14.8431C2.07268 14.7493 2.02 14.6221 2.02 14.4895V11.2815C2.02 11.1489 2.07268 11.0217 2.16645 10.928C2.26021 10.8342 2.38739 10.7815 2.52 10.7815H57.144C57.2766 10.7815 57.4038 10.8342 57.4976 10.928C57.5913 11.0217 57.644 11.1489 57.644 11.2815V14.4895C57.644 14.6221 57.5913 14.7493 57.4976 14.8431C57.4038 14.9368 57.2766 14.9895 57.144 14.9895ZM3.02 13.9895H56.644V11.7815H3.02V13.9895Z" fill="white"/>
<path d="M57.144 11.7815H2.52C2.38739 11.7815 2.26021 11.7288 2.16645 11.6351C2.07268 11.5413 2.02 11.4141 2.02 11.2815V8.07451C2.02 7.9419 2.07268 7.81473 2.16645 7.72096C2.26021 7.62719 2.38739 7.57451 2.52 7.57451H57.144C57.2766 7.57451 57.4038 7.62719 57.4976 7.72096C57.5913 7.81473 57.644 7.9419 57.644 8.07451V11.2825C57.6437 11.4149 57.5909 11.5419 57.4972 11.6354C57.4035 11.729 57.2764 11.7815 57.144 11.7815ZM3.02 10.7815H56.644V8.57451H3.02V10.7815Z" fill="white"/>
<path d="M59.164 43.9495H0.5C0.367392 43.9495 0.240215 43.8968 0.146447 43.8031C0.0526785 43.7093 0 43.5821 0 43.4495V40.2425C0 40.1099 0.0526785 39.9827 0.146447 39.889C0.240215 39.7952 0.367392 39.7425 0.5 39.7425H59.164C59.2966 39.7425 59.4238 39.7952 59.5176 39.889C59.6113 39.9827 59.664 40.1099 59.664 40.2425V43.4495C59.664 43.5821 59.6113 43.7093 59.5176 43.8031C59.4238 43.8968 59.2966 43.9495 59.164 43.9495ZM1 42.9495H58.664V40.7425H1V42.9495Z" fill="white"/>
<path d="M53.89 8.57451H5.774C5.65452 8.57453 5.53899 8.53177 5.44832 8.45397C5.35764 8.37618 5.29782 8.26848 5.27969 8.15039C5.26156 8.0323 5.28632 7.91161 5.34948 7.8102C5.41263 7.70878 5.51002 7.63333 5.624 7.59751L29.682 0.0225115C29.7797 -0.00750384 29.8843 -0.00750384 29.982 0.0225115L54.04 7.59651C54.154 7.63233 54.2514 7.70778 54.3145 7.8092C54.3777 7.91061 54.4024 8.0313 54.3843 8.14939C54.3662 8.26748 54.3064 8.37518 54.2157 8.45298C54.125 8.53077 54.0095 8.57453 53.89 8.57451ZM9.032 7.57451H50.642L29.832 1.02351L9.032 7.57451Z" fill="white"/>
<path d="M71.9038 16.8084L66.02 33.0071H63.6152L70.3901 15.2337H71.9404L71.9038 16.8084ZM76.8354 33.0071L70.9395 16.8084L70.9028 15.2337H72.4531L79.2524 33.0071H76.8354ZM76.5303 26.4275V28.3562H66.5449V26.4275H76.5303Z" fill="white"/>
<path d="M91.2163 27.3552H93.5601C93.438 28.4783 93.1165 29.4833 92.5957 30.3704C92.0749 31.2574 91.3384 31.9614 90.3862 32.4822C89.4341 32.9949 88.2459 33.2512 86.8218 33.2512C85.7801 33.2512 84.832 33.0559 83.9775 32.6653C83.1312 32.2747 82.4028 31.7213 81.7925 31.0051C81.1821 30.2809 80.7101 29.4142 80.3765 28.405C80.0509 27.3878 79.8882 26.2566 79.8882 25.0115V23.2415C79.8882 21.9963 80.0509 20.8692 80.3765 19.8601C80.7101 18.8429 81.1862 17.9721 81.8047 17.2478C82.4313 16.5235 83.1841 15.9661 84.063 15.5754C84.9419 15.1848 85.9307 14.9895 87.0293 14.9895C88.3721 14.9895 89.5073 15.2418 90.4351 15.7463C91.3628 16.2509 92.083 16.9508 92.5957 17.846C93.1165 18.733 93.438 19.7625 93.5601 20.9343H91.2163C91.1024 20.1043 90.8908 19.3922 90.5815 18.7981C90.2723 18.1959 89.8328 17.732 89.2632 17.4065C88.6935 17.081 87.9489 16.9182 87.0293 16.9182C86.2399 16.9182 85.5441 17.0688 84.9419 17.3699C84.3478 17.671 83.8473 18.0982 83.4404 18.6516C83.0417 19.205 82.7406 19.8683 82.5371 20.6414C82.3337 21.4145 82.2319 22.273 82.2319 23.217V25.0115C82.2319 25.8823 82.3215 26.7001 82.5005 27.4651C82.6877 28.2301 82.9684 28.9015 83.3428 29.4793C83.7171 30.0571 84.1932 30.5128 84.771 30.8464C85.3488 31.172 86.0324 31.3347 86.8218 31.3347C87.8228 31.3347 88.6203 31.176 89.2144 30.8587C89.8084 30.5413 90.256 30.0855 90.5571 29.4915C90.8664 28.8974 91.0861 28.1853 91.2163 27.3552Z" fill="white"/>
<path d="M95.7705 15.2337H101.654C102.989 15.2337 104.116 15.4371 105.036 15.844C105.963 16.2509 106.667 16.8531 107.147 17.6506C107.636 18.44 107.88 19.4125 107.88 20.5681C107.88 21.3819 107.713 22.1266 107.379 22.802C107.054 23.4693 106.582 24.039 105.963 24.511C105.353 24.9749 104.621 25.3207 103.766 25.5486L103.107 25.8049H97.5771L97.5527 23.8884H101.728C102.574 23.8884 103.278 23.742 103.839 23.449C104.401 23.1479 104.824 22.745 105.109 22.2405C105.394 21.7359 105.536 21.1785 105.536 20.5681C105.536 19.8845 105.402 19.2864 105.133 18.7737C104.865 18.261 104.442 17.8663 103.864 17.5896C103.294 17.3048 102.558 17.1624 101.654 17.1624H98.1265V33.0071H95.7705V15.2337ZM106.159 33.0071L101.837 24.9504L104.291 24.9382L108.673 32.8606V33.0071H106.159Z" fill="white"/>
<path d="M123.86 23.5588V24.6819C123.86 26.0165 123.693 27.2128 123.359 28.2708C123.026 29.3287 122.546 30.228 121.919 30.9685C121.292 31.7091 120.54 32.2747 119.661 32.6653C118.79 33.0559 117.813 33.2512 116.731 33.2512C115.681 33.2512 114.717 33.0559 113.838 32.6653C112.967 32.2747 112.21 31.7091 111.567 30.9685C110.933 30.228 110.44 29.3287 110.09 28.2708C109.74 27.2128 109.565 26.0165 109.565 24.6819V23.5588C109.565 22.2242 109.736 21.032 110.078 19.9822C110.428 18.9242 110.92 18.025 111.555 17.2844C112.19 16.5357 112.943 15.9661 113.813 15.5754C114.692 15.1848 115.657 14.9895 116.707 14.9895C117.789 14.9895 118.765 15.1848 119.636 15.5754C120.515 15.9661 121.268 16.5357 121.895 17.2844C122.529 18.025 123.014 18.9242 123.347 19.9822C123.689 21.032 123.86 22.2242 123.86 23.5588ZM121.528 24.6819V23.5344C121.528 22.4765 121.418 21.5406 121.199 20.7268C120.987 19.913 120.674 19.2294 120.259 18.676C119.844 18.1226 119.335 17.7035 118.733 17.4187C118.139 17.1339 117.463 16.9915 116.707 16.9915C115.974 16.9915 115.311 17.1339 114.717 17.4187C114.131 17.7035 113.626 18.1226 113.203 18.676C112.788 19.2294 112.467 19.913 112.239 20.7268C112.011 21.5406 111.897 22.4765 111.897 23.5344V24.6819C111.897 25.748 112.011 26.692 112.239 27.5139C112.467 28.3277 112.792 29.0154 113.215 29.5769C113.647 30.1303 114.155 30.5494 114.741 30.8342C115.335 31.1191 115.999 31.2615 116.731 31.2615C117.496 31.2615 118.175 31.1191 118.77 30.8342C119.364 30.5494 119.864 30.1303 120.271 29.5769C120.686 29.0154 120.999 28.3277 121.211 27.5139C121.423 26.692 121.528 25.748 121.528 24.6819Z" fill="white"/>
<path d="M132.943 26.0369H128.194V24.1204H132.943C133.862 24.1204 134.607 23.9739 135.177 23.6809C135.746 23.3879 136.161 22.981 136.422 22.4602C136.69 21.9394 136.825 21.3453 136.825 20.678C136.825 20.0676 136.69 19.4939 136.422 18.9568C136.161 18.4197 135.746 17.9884 135.177 17.6628C134.607 17.3292 133.862 17.1624 132.943 17.1624H128.744V33.0071H126.388V15.2337H132.943C134.286 15.2337 135.421 15.4656 136.349 15.9295C137.276 16.3933 137.98 17.0362 138.46 17.8582C138.941 18.672 139.181 19.6038 139.181 20.6536C139.181 21.7929 138.941 22.7654 138.46 23.5711C137.98 24.3767 137.276 24.9911 136.349 25.4143C135.421 25.8294 134.286 26.0369 132.943 26.0369Z" fill="white"/>
<path d="M154.843 23.5588V24.6819C154.843 26.0165 154.676 27.2128 154.343 28.2708C154.009 29.3287 153.529 30.228 152.902 30.9685C152.276 31.7091 151.523 32.2747 150.644 32.6653C149.773 33.0559 148.797 33.2512 147.714 33.2512C146.665 33.2512 145.7 33.0559 144.821 32.6653C143.951 32.2747 143.194 31.7091 142.551 30.9685C141.916 30.228 141.424 29.3287 141.074 28.2708C140.724 27.2128 140.549 26.0165 140.549 24.6819V23.5588C140.549 22.2242 140.72 21.032 141.062 19.9822C141.411 18.9242 141.904 18.025 142.539 17.2844C143.173 16.5357 143.926 15.9661 144.797 15.5754C145.676 15.1848 146.64 14.9895 147.69 14.9895C148.772 14.9895 149.749 15.1848 150.62 15.5754C151.499 15.9661 152.251 16.5357 152.878 17.2844C153.513 18.025 153.997 18.9242 154.331 19.9822C154.672 21.032 154.843 22.2242 154.843 23.5588ZM152.512 24.6819V23.5344C152.512 22.4765 152.402 21.5406 152.182 20.7268C151.971 19.913 151.657 19.2294 151.242 18.676C150.827 18.1226 150.319 17.7035 149.716 17.4187C149.122 17.1339 148.447 16.9915 147.69 16.9915C146.958 16.9915 146.294 17.1339 145.7 17.4187C145.114 17.7035 144.61 18.1226 144.187 18.676C143.771 19.2294 143.45 19.913 143.222 20.7268C142.994 21.5406 142.88 22.4765 142.88 23.5344V24.6819C142.88 25.748 142.994 26.692 143.222 27.5139C143.45 28.3277 143.776 29.0154 144.199 29.5769C144.63 30.1303 145.139 30.5494 145.725 30.8342C146.319 31.1191 146.982 31.2615 147.714 31.2615C148.479 31.2615 149.159 31.1191 149.753 30.8342C150.347 30.5494 150.847 30.1303 151.254 29.5769C151.669 29.0154 151.983 28.3277 152.194 27.5139C152.406 26.692 152.512 25.748 152.512 24.6819Z" fill="white"/>
<path d="M168.15 31.0906V33.0071H159.263V31.0906H168.15ZM159.727 15.2337V33.0071H157.371V15.2337H159.727Z" fill="white"/>
<path d="M172.375 15.2337V33.0071H170.019V15.2337H172.375Z" fill="white"/>
<path d="M185.132 28.5149C185.132 28.0999 185.067 27.7337 184.937 27.4163C184.814 27.0907 184.595 26.7978 184.277 26.5374C183.968 26.2769 183.537 26.0287 182.983 25.7927C182.438 25.5567 181.746 25.3167 180.908 25.0725C180.029 24.8121 179.236 24.5232 178.528 24.2058C177.82 23.8803 177.214 23.51 176.709 23.095C176.204 22.6799 175.818 22.2039 175.549 21.6668C175.281 21.1296 175.146 20.5152 175.146 19.8235C175.146 19.1318 175.289 18.4929 175.574 17.907C175.859 17.3211 176.265 16.8124 176.794 16.3811C177.332 15.9417 177.97 15.5999 178.711 15.3557C179.451 15.1116 180.278 14.9895 181.189 14.9895C182.524 14.9895 183.655 15.2459 184.583 15.7586C185.518 16.2631 186.23 16.9264 186.719 17.7483C187.207 18.5621 187.451 19.4329 187.451 20.3606H185.107C185.107 19.6933 184.965 19.1033 184.68 18.5906C184.395 18.0698 183.964 17.6628 183.386 17.3699C182.808 17.0688 182.076 16.9182 181.189 16.9182C180.351 16.9182 179.659 17.0444 179.114 17.2966C178.569 17.5489 178.162 17.8907 177.893 18.322C177.633 18.7533 177.502 19.2457 177.502 19.7991C177.502 20.1734 177.58 20.5152 177.734 20.8245C177.897 21.1256 178.145 21.4063 178.479 21.6668C178.821 21.9272 179.252 22.1672 179.773 22.387C180.302 22.6067 180.933 22.8183 181.665 23.0217C182.674 23.3066 183.545 23.6239 184.277 23.9739C185.01 24.3238 185.612 24.7185 186.084 25.158C186.564 25.5893 186.918 26.0816 187.146 26.635C187.382 27.1803 187.5 27.7988 187.5 28.4905C187.5 29.2148 187.354 29.8699 187.061 30.4558C186.768 31.0418 186.348 31.5422 185.803 31.9573C185.258 32.3723 184.603 32.6938 183.838 32.9216C183.081 33.1414 182.235 33.2512 181.299 33.2512C180.477 33.2512 179.667 33.1373 178.87 32.9094C178.08 32.6816 177.36 32.3398 176.709 31.884C176.066 31.4283 175.549 30.8668 175.159 30.1995C174.776 29.524 174.585 28.7428 174.585 27.8557H176.929C176.929 28.4661 177.047 28.991 177.283 29.4304C177.519 29.8617 177.84 30.2198 178.247 30.5046C178.662 30.7895 179.13 31.0011 179.651 31.1394C180.18 31.2696 180.729 31.3347 181.299 31.3347C182.121 31.3347 182.817 31.2208 183.386 30.9929C183.956 30.7651 184.387 30.4395 184.68 30.0164C184.981 29.5932 185.132 29.0927 185.132 28.5149Z" fill="white"/>
</svg>

