<svg width="180" height="28" viewBox="0 0 180 28" fill="none" xmlns="http://www.w3.org/2000/svg">
<rect x="0.5" y="0.5" width="39.2556" height="26.6038" rx="5.5" fill="white" stroke="#D9D9D9"/>
<path fill-rule="evenodd" clip-rule="evenodd" d="M12.2208 18.6996H9.7821L7.95336 11.7229C7.86656 11.4019 7.68226 11.1182 7.41116 10.9845C6.7346 10.6485 5.98908 10.381 5.17578 10.2461V9.97752H9.10435C9.64655 9.97752 10.0532 10.381 10.121 10.8496L11.0698 15.8822L13.5073 9.97752H15.8783L12.2208 18.6996ZM17.2338 18.6996H14.9306L16.8271 9.97752H19.1303L17.2338 18.6996ZM22.11 12.3938C22.1778 11.924 22.5844 11.6554 23.0589 11.6554C23.8044 11.588 24.6165 11.7229 25.2942 12.0578L25.7009 10.1799C25.0231 9.91125 24.2776 9.77637 23.6011 9.77637C21.3657 9.77637 19.7391 10.9845 19.7391 12.6612C19.7391 13.9368 20.8912 14.6066 21.7045 15.0101C22.5844 15.4124 22.9233 15.681 22.8555 16.0833C22.8555 16.6868 22.1778 16.9554 21.5012 16.9554C20.6879 16.9554 19.8746 16.7543 19.1303 16.4182L18.7236 18.2973C19.5369 18.6322 20.4168 18.767 21.2301 18.767C23.7366 18.8333 25.2942 17.6263 25.2942 15.8147C25.2942 13.5333 22.11 13.3996 22.11 12.3938V12.3938ZM33.3547 18.6996L31.526 9.97752H29.5617C29.155 9.97752 28.7484 10.2461 28.6128 10.6485L25.2265 18.6996H27.5974L28.0706 17.4252H30.9838L31.2549 18.6996H33.3547ZM29.9006 12.3264L30.5771 15.6136H28.6806L29.9006 12.3264Z" fill="#172B85"/>
<rect x="93.6631" y="0.5" width="39.2556" height="26.6038" rx="5.5" fill="#1F72CD" stroke="#D9D9D9"/>
<path fill-rule="evenodd" clip-rule="evenodd" d="M100.38 9.77637L96.6138 18.1113H101.123L101.682 16.7823H102.959L103.518 18.1113H108.481V17.097L108.924 18.1113H111.491L111.933 17.0756V18.1113H122.255L123.51 16.8169L124.685 18.1113L129.987 18.122L126.208 13.9671L129.987 9.77637H124.767L123.546 11.0469L122.407 9.77637H111.179L110.214 11.9277L109.228 9.77637H104.728V10.7561L104.228 9.77637H100.38ZM115.794 10.9599H121.721L123.534 12.9182L125.405 10.9599H127.218L124.463 13.9659L127.218 16.9373H125.323L123.51 14.9563L121.629 16.9373H115.794V10.9599ZM117.257 13.2901V12.1983V12.1972H120.956L122.57 13.9433L120.884 15.6989H117.257V14.507H120.491V13.2901H117.257ZM101.253 10.9599H103.45L105.949 16.6119V10.9599H108.356L110.286 15.0124L112.064 10.9599H114.46V16.9408H113.002L112.99 12.2542L110.865 16.9408H109.561L107.424 12.2542V16.9408H104.425L103.857 15.6H100.785L100.218 16.9396H98.6114L101.253 10.9599ZM101.31 14.3604L102.322 11.9719L103.333 14.3604H101.31Z" fill="white"/>
<rect x="140.245" y="0.5" width="39.2556" height="26.6038" rx="5.5" fill="white" stroke="#D9D9D9"/>
<path d="M156.691 27.0294L179.407 20.416V22.0294C179.407 24.7909 177.169 27.0294 174.407 27.0294H156.691Z" fill="#FD6020"/>
<path fill-rule="evenodd" clip-rule="evenodd" d="M175.095 11.0543C176.345 11.0543 177.032 11.6104 177.032 12.6609C177.095 13.4642 176.532 14.144 175.783 14.2676L177.47 16.554H176.158L174.72 14.3294H174.595V16.554H173.533V11.0543H175.095ZM174.595 13.5878H174.908C175.595 13.5878 175.908 13.2789 175.908 12.7227C175.908 12.2283 175.595 11.9194 174.908 11.9194H174.595V13.5878ZM169.847 16.554H172.846V15.627H170.909V14.144H172.783V13.2171H170.909V11.9812H172.846V11.0543H169.847V16.554ZM166.722 14.7619L165.285 11.0543H164.16L166.472 16.6776H167.035L169.347 11.0543H168.222L166.722 14.7619ZM154.038 13.835C154.038 15.3799 155.287 16.6776 156.849 16.6776C157.349 16.6776 157.787 16.554 158.224 16.3686V15.1327C157.912 15.5035 157.474 15.7506 156.974 15.7506C155.975 15.7506 155.162 15.0091 155.162 14.0204V13.8968C155.1 12.9081 155.912 12.043 156.912 11.9812C157.412 11.9812 157.912 12.2283 158.224 12.5991V11.3632C157.849 11.116 157.349 11.0543 156.912 11.0543C155.287 10.9307 154.038 12.2283 154.038 13.835ZM152.101 13.1553C151.476 12.9081 151.288 12.7845 151.288 12.4755C151.351 12.1048 151.663 11.7958 152.038 11.8576C152.351 11.8576 152.663 12.043 152.913 12.2901L153.475 11.5486C153.038 11.1778 152.475 10.9307 151.913 10.9307C151.038 10.8689 150.288 11.5486 150.226 12.4137V12.4755C150.226 13.2171 150.538 13.6496 151.538 13.9586C151.788 14.0204 152.038 14.144 152.288 14.2676C152.475 14.3912 152.6 14.5765 152.6 14.8237C152.6 15.2563 152.226 15.627 151.851 15.627H151.788C151.288 15.627 150.851 15.3181 150.663 14.8855L149.976 15.5653C150.351 16.245 151.101 16.6158 151.851 16.6158C152.85 16.6776 153.663 15.936 153.725 14.9473V14.7619C153.663 14.0204 153.35 13.6496 152.101 13.1553ZM148.476 16.554H149.539V11.0543H148.476V16.554ZM143.54 11.0543H145.102H145.415C146.914 11.1161 148.101 12.3519 148.039 13.835C148.039 14.6383 147.664 15.3799 147.039 15.936C146.477 16.3686 145.79 16.6158 145.102 16.554H143.54V11.0543ZM144.915 15.6271C145.415 15.6889 145.977 15.5035 146.352 15.1945C146.727 14.8237 146.914 14.3294 146.914 13.7732C146.914 13.2789 146.727 12.7845 146.352 12.4137C145.977 12.1048 145.415 11.9194 144.915 11.9812H144.602V15.6271H144.915Z" fill="black"/>
<path fill-rule="evenodd" clip-rule="evenodd" d="M161.411 10.9268C159.849 10.9268 158.537 12.1626 158.537 13.7693C158.537 15.3142 159.786 16.6119 161.411 16.6737C163.036 16.7354 164.285 15.4378 164.348 13.8311C164.285 12.2244 163.036 10.9268 161.411 10.9268V10.9268Z" fill="#FD6020"/>
<rect x="47.0815" y="0.5" width="39.2556" height="26.6038" rx="5.5" fill="white" stroke="#D9D9D9"/>
<path fill-rule="evenodd" clip-rule="evenodd" d="M66.9969 19.7334C65.6264 20.9161 63.8487 21.63 61.906 21.63C57.5715 21.63 54.0576 18.0754 54.0576 13.6905C54.0576 9.30563 57.5715 5.75098 61.906 5.75098C63.8487 5.75098 65.6264 6.46494 66.9969 7.64762C68.3674 6.46494 70.1452 5.75098 72.0878 5.75098C76.4223 5.75098 79.9362 9.30563 79.9362 13.6905C79.9362 18.0754 76.4223 21.63 72.0878 21.63C70.1452 21.63 68.3674 20.9161 66.9969 19.7334Z" fill="#ED0006"/>
<path fill-rule="evenodd" clip-rule="evenodd" d="M66.9971 19.7334C68.6846 18.2771 69.7546 16.1102 69.7546 13.6905C69.7546 11.2708 68.6846 9.10388 66.9971 7.64762C68.3676 6.46494 70.1453 5.75098 72.0879 5.75098C76.4225 5.75098 79.9364 9.30563 79.9364 13.6905C79.9364 18.0754 76.4225 21.63 72.0879 21.63C70.1453 21.63 68.3676 20.9161 66.9971 19.7334Z" fill="#F9A000"/>
<path fill-rule="evenodd" clip-rule="evenodd" d="M66.9968 7.64746C68.6843 9.10372 69.7543 11.2706 69.7543 13.6903C69.7543 16.11 68.6843 18.2769 66.9968 19.7332C65.3093 18.2769 64.2393 16.11 64.2393 13.6903C64.2393 11.2706 65.3093 9.10372 66.9968 7.64746Z" fill="#FF5E00"/>
</svg>
