<svg width="12" height="12" viewBox="0 0 12 12" fill="none" xmlns="http://www.w3.org/2000/svg">
<path d="M0.00401949 6.57266C0.00965117 5.96221 0.339457 5.48971 0.863907 5.31017C1.3866 5.13133 1.96631 5.30448 2.30069 5.76987C2.7646 6.41587 3.21091 7.07467 3.66461 7.72814C3.70826 7.79106 3.74803 7.85719 3.79661 7.91621C3.97893 8.13877 4.24468 8.15762 4.43263 7.94181C4.68008 7.6581 4.91133 7.36016 5.14715 7.06649C6.5329 5.34039 7.91794 3.61357 9.30298 1.88711C9.68594 1.40963 10.0717 0.93393 10.4504 0.452896C10.6641 0.18127 10.9066 -0.026716 11.2758 0.00279309C11.8816 0.0507898 12.2037 0.724522 11.8587 1.24609C11.4849 1.81138 11.0921 2.36388 10.706 2.92099C9.36986 4.84869 8.03198 6.77531 6.69657 8.70336C6.04893 9.63841 5.40375 10.5752 4.75857 11.5121C4.57378 11.7801 4.35309 11.9792 4.00639 11.9984C3.65194 12.018 3.39711 11.8544 3.20457 11.5778C2.3827 10.3978 1.5654 9.21497 0.746346 8.03283C0.571763 7.78111 0.395069 7.53046 0.225063 7.27554C0.0782873 7.05547 -0.0195632 6.81726 0.00331553 6.57372L0.00401949 6.57266Z" fill="#A50C0C"/>
</svg>
