<svg width="24" height="24" viewBox="0 0 24 24" fill="none" xmlns="http://www.w3.org/2000/svg">
<path d="M12 0C5.38105 0 0 5.38105 0 12C0 18.6189 5.38105 24 12 24C18.6189 24 24 18.6189 24 12C24 5.38105 18.6189 0 12 0ZM1.36421 12C1.36421 9.32211 2.37474 6.84632 4.01684 4.97684L6.34105 7.30105L7.30105 6.34105L4.97684 4.01684C6.84632 2.37474 9.32211 1.36421 12 1.36421C17.8611 1.36421 22.6358 6.13895 22.6358 12C22.6358 14.6779 21.6253 17.1537 19.9832 19.0232L18.2653 17.3053L17.3053 18.2653L19.0232 19.9832C17.1537 21.6253 14.6779 22.6358 12 22.6358C6.13895 22.6358 1.36421 17.8611 1.36421 12Z" fill="#303030"/>
<path d="M12.5732 6.9147C13.5078 6.9147 14.3944 7.2868 15.1133 8.03098L16 7.06354C15.0175 6.0961 13.8433 5.59998 12.5493 5.59998C10.2488 5.59998 8.28385 7.33641 7.51703 9.74261H5.59998V11.0821H7.22947C7.18154 11.3798 7.15758 11.7023 7.15758 12C7.15758 12.3225 7.18154 12.6201 7.22947 12.9178H5.59998V14.2573H7.54099C8.30781 16.6635 10.2728 18.4 12.5732 18.4C13.8193 18.4 15.0415 17.879 16 16.9364L15.1133 15.9442C14.3944 16.6635 13.4838 17.0356 12.5732 17.0356C10.9677 17.0356 9.57786 15.8945 8.90689 14.2325H13.3401V12.893H8.54744C8.49951 12.5953 8.47555 12.2728 8.47555 11.9752C8.47555 11.6527 8.49951 11.355 8.54744 11.0573H13.3401V9.71781H8.90689C9.57786 8.05579 10.9677 6.9147 12.5732 6.9147Z" fill="#303030"/>
</svg>
