<svg width="33" height="26" viewBox="0 0 33 26" fill="none" xmlns="http://www.w3.org/2000/svg">
<path d="M30.9388 14.5459H30.4235V14.1477C30.4235 6.83775 24.1821 0.890625 16.5106 0.890625C8.83908 0.890625 2.5977 6.83775 2.5977 14.1477V14.5459H2.08241C1.53594 14.5465 1.01204 14.7638 0.625627 15.1503C0.239217 15.5367 0.0218601 16.0606 0.0212402 16.607L0.0212402 19.6988C0.0218601 20.2453 0.239217 20.7692 0.625627 21.1556C1.01204 21.542 1.53594 21.7593 2.08241 21.76H2.5977C2.5977 22.0333 2.70628 22.2954 2.89955 22.4887C3.09283 22.682 3.35496 22.7906 3.62829 22.7906H5.17416C5.44749 22.7906 5.70962 22.682 5.9029 22.4887C6.09617 22.2954 6.20475 22.0333 6.20475 21.76V14.5459C6.20475 14.2725 6.09617 14.0104 5.9029 13.8171C5.70962 13.6239 5.44749 13.5153 5.17416 13.5153H3.65026C3.99864 7.06685 9.63109 1.92121 16.5106 1.92121C23.3901 1.92121 29.0226 7.06685 29.3709 13.5153H27.847C27.5737 13.5153 27.3116 13.6239 27.1183 13.8171C26.925 14.0104 26.8164 14.2725 26.8164 14.5459V21.76C26.8164 22.0333 26.925 22.2954 27.1183 22.4887C27.3116 22.682 27.5737 22.7906 27.847 22.7906H29.3929C29.6662 22.7906 29.9284 22.682 30.1216 22.4887C30.3149 22.2954 30.4235 22.0333 30.4235 21.76H30.9388C31.4852 21.7593 32.0092 21.542 32.3956 21.1556C32.782 20.7692 32.9993 20.2453 33 19.6988V16.607C32.9993 16.0606 32.782 15.5367 32.3956 15.1503C32.0092 14.7638 31.4852 14.5465 30.9388 14.5459ZM2.5977 20.7294H2.08241C1.80908 20.7294 1.54695 20.6208 1.35368 20.4275C1.1604 20.2343 1.05182 19.9721 1.05182 19.6988V16.607C1.05182 16.3337 1.1604 16.0716 1.35368 15.8783C1.54695 15.685 1.80908 15.5765 2.08241 15.5765H2.5977V20.7294ZM5.17416 14.5459V21.76H3.62829V14.5459H5.17416ZM29.3929 21.76H27.847V14.5459H29.3929V21.76ZM31.9694 19.6988C31.9694 19.9721 31.8608 20.2343 31.6675 20.4275C31.4742 20.6208 31.2121 20.7294 30.9388 20.7294H30.4235V15.5765H30.9388C31.2121 15.5765 31.4742 15.685 31.6675 15.8783C31.8608 16.0716 31.9694 16.3337 31.9694 16.607V19.6988Z" fill="#303030"/>
<path d="M8.5236 25.1094C8.71421 25.1094 8.9011 25.0566 9.06345 24.9567C10.1545 24.3669 11.3733 24.0533 12.6135 24.0431C13.789 24.0417 14.9426 24.3606 15.9504 24.9655C16.1107 25.0605 16.2938 25.1102 16.4801 25.1094C16.6664 25.1086 16.849 25.0573 17.0084 24.9609C18.1201 24.3692 19.3581 24.0544 20.6174 24.0431C21.7988 24.04 22.9588 24.3589 23.9726 24.9655C24.129 25.0582 24.3073 25.1078 24.4891 25.1093C24.671 25.1108 24.85 25.0642 25.008 24.9741C25.166 24.8841 25.2974 24.7538 25.3888 24.5965C25.4801 24.4393 25.5283 24.2607 25.5283 24.0788V12.778C25.5283 12.5991 25.4817 12.4232 25.393 12.2677C25.3044 12.1122 25.1768 11.9825 25.0228 11.8913C23.6916 11.0951 22.1686 10.6767 20.6174 10.6812C19.1915 10.6929 17.7847 11.0101 16.4917 11.6113C15.2915 10.9968 13.9619 10.6779 12.6136 10.6812C10.9919 10.6888 9.39883 11.1082 7.98371 11.9002C7.83376 11.9924 7.70993 12.1215 7.62404 12.2752C7.53814 12.4289 7.49304 12.602 7.49304 12.778V24.0788C7.49305 24.3521 7.60163 24.6142 7.79489 24.8075C7.98815 25.0008 8.25028 25.1094 8.5236 25.1094ZM8.52363 12.778C9.77591 12.0852 11.1824 11.7185 12.6135 11.7118C13.9739 11.7094 15.3091 12.0781 16.4756 12.778C17.747 12.0861 19.17 11.7198 20.6174 11.7118C21.9837 11.7079 23.3252 12.0765 24.4977 12.778V24.0788C23.3253 23.3772 21.9837 23.0086 20.6174 23.0125C19.17 23.0206 17.747 23.3869 16.4756 24.0788C15.3091 23.3788 13.9739 23.0101 12.6135 23.0125C11.1824 23.0194 9.77595 23.3861 8.52363 24.0788V12.778Z" fill="#303030"/>
</svg>
