<svg width="43" height="44" viewBox="0 0 43 44" fill="none" xmlns="http://www.w3.org/2000/svg">
<path d="M27.2937 2.09916C27.2937 1.85945 27.293 1.624 27.2937 1.38854C27.2962 0.598844 27.8852 0.00311432 28.6622 0.00417812C29.4414 0.00488732 30.0314 0.598489 30.0343 1.38499C30.035 1.56832 30.0433 1.75201 30.0318 1.93427C30.0225 2.08108 30.0719 2.12576 30.2217 2.12505C31.2903 2.11937 32.359 2.12327 33.4276 2.12079C33.5917 2.12044 33.8088 2.1598 33.9041 2.07434C33.9872 1.99987 33.9439 1.7747 33.9371 1.6169C33.9184 1.16479 33.9901 0.746358 34.3286 0.407359C34.7213 0.0137523 35.3009 -0.107521 35.8336 0.100275C36.3276 0.293178 36.6701 0.793874 36.6748 1.33464C36.6773 1.63002 36.6809 1.92576 36.673 2.22114C36.6698 2.34277 36.7092 2.3949 36.8299 2.43071C38.6853 2.98389 40.1287 4.08067 41.1593 5.69907C41.9328 6.91358 42.305 8.25184 42.3054 9.6862C42.3079 18.586 42.31 27.4861 42.3047 36.3859C42.3025 40.04 39.7654 43.1222 36.1711 43.8368C35.6538 43.9396 35.1171 43.9917 34.5894 43.9924C25.6279 44.0016 16.6663 44.0002 7.70435 43.9985C4.17274 43.9977 1.1674 41.7145 0.248139 38.3372C0.0844194 37.7355 0.00488837 37.1199 0.00488837 36.4965C0.00345538 28.6602 0.00381363 20.8242 0.00381363 12.9879C0.00381363 11.9124 -0.00585907 10.8369 0.00560487 9.76173C0.0356977 6.97989 1.22866 4.81469 3.57268 3.28566C4.65602 2.57894 5.86654 2.21547 7.16089 2.13852C7.32318 2.12895 7.36008 2.07327 7.35542 1.92541C7.34825 1.6896 7.34861 1.45201 7.36975 1.21727C7.43531 0.494591 8.03502 -0.0117789 8.79164 0.00417812C9.47875 0.0187168 10.052 0.575795 10.0903 1.27329C10.1028 1.50308 10.1014 1.73392 10.0978 1.96441C10.096 2.07434 10.1261 2.12398 10.2483 2.12398C11.4484 2.12079 12.6485 2.12115 13.8483 2.12398C13.964 2.12398 14.0074 2.08569 14.0034 1.96973C13.9966 1.76903 13.9984 1.56797 14.0027 1.36691C14.0192 0.565511 14.6089 -0.0043323 15.4103 0.00417812C16.1612 0.0119793 16.7354 0.611609 16.7376 1.3896C16.7379 1.58463 16.7412 1.77966 16.7365 1.9747C16.734 2.07718 16.7648 2.12327 16.878 2.12327C18.09 2.12044 19.3019 2.12079 20.5139 2.12327C20.6299 2.12327 20.6543 2.07008 20.6521 1.97079C20.6482 1.77576 20.65 1.58073 20.6514 1.3857C20.6575 0.588561 21.2375 0.00275972 22.0192 0.00417812C22.8016 0.00524192 23.3813 0.594234 23.3824 1.38925C23.3824 1.58428 23.3867 1.77931 23.3809 1.97434C23.3781 2.07824 23.4107 2.12363 23.5224 2.12327C24.7405 2.12079 25.9585 2.12185 27.1762 2.12079C27.2106 2.12079 27.2446 2.10873 27.2934 2.09951L27.2937 2.09916ZM21.1569 13.6467C15.1025 13.6467 9.0485 13.6467 2.99411 13.6467C2.82549 13.6467 2.74107 13.73 2.74083 13.8964C2.74083 21.4136 2.73975 28.9311 2.74083 36.4483C2.74119 39.1007 4.94692 41.2794 7.62626 41.2794C16.6122 41.2794 25.5978 41.2794 34.5837 41.2783C34.7686 41.2783 34.9538 41.2701 35.1375 41.2535C37.6116 41.0333 39.5644 38.9262 39.5651 36.4717C39.5666 28.9485 39.5659 21.4253 39.5659 13.9021C39.5659 13.7316 39.4776 13.6464 39.3011 13.6464C33.2528 13.6464 27.2045 13.6464 21.1562 13.6464L21.1569 13.6467ZM36.6755 5.26043C36.6755 5.39198 36.6769 5.49127 36.6755 5.59021C36.6623 6.37175 35.9748 6.98237 35.1913 6.90897C34.4716 6.84159 33.9485 6.2753 33.9399 5.55156C33.9371 5.31716 33.9396 5.08277 33.9396 4.84271H30.0347C30.0347 5.09731 30.0386 5.33879 30.0339 5.57992C30.02 6.27246 29.5084 6.82386 28.8069 6.90684C28.1456 6.98485 27.5133 6.56323 27.3474 5.91112C27.2987 5.71964 27.3055 5.51361 27.2959 5.31362C27.2883 5.15759 27.2944 5.00086 27.2944 4.86044C27.2572 4.84306 27.2522 4.83845 27.2468 4.83845C25.9994 4.83526 24.7519 4.83313 23.5042 4.82923C23.4085 4.82923 23.3813 4.87462 23.3827 4.96079C23.3856 5.15582 23.3841 5.35085 23.3834 5.54588C23.3806 6.31146 22.7923 6.90755 22.0343 6.91393C21.2708 6.92031 20.6722 6.34267 20.6532 5.57744C20.6482 5.38241 20.6464 5.18738 20.6536 4.99235C20.6582 4.87108 20.6181 4.82072 20.4909 4.82675C20.3183 4.83491 20.1449 4.82888 19.9715 4.82888C18.9566 4.82888 17.9416 4.83172 16.9267 4.82604C16.7766 4.82533 16.7268 4.87072 16.7358 5.01753C16.7469 5.20015 16.7401 5.38383 16.7379 5.5668C16.7293 6.30686 16.1576 6.89124 15.4214 6.91322C14.6651 6.93592 14.05 6.37955 14.0077 5.62815C13.9959 5.4161 13.9977 5.20263 14.0045 4.99022C14.0084 4.86647 13.9644 4.8264 13.8393 4.82675C12.6453 4.8303 11.4513 4.83065 10.2572 4.82675C10.125 4.8264 10.0964 4.8803 10.0982 4.99625C10.1017 5.22071 10.1039 5.44588 10.0896 5.66964C10.0462 6.34763 9.46765 6.89372 8.78053 6.91358C7.97734 6.93734 7.36975 6.34054 7.35363 5.50865C7.34933 5.29234 7.35291 5.07568 7.35291 4.84448C7.24544 4.85086 7.16304 4.85264 7.08136 4.86115C4.98131 5.07923 3.16678 6.73202 2.83361 8.78977C2.73259 9.41458 2.76519 10.0607 2.74262 10.6975C2.73402 10.9372 2.74154 10.9376 2.98587 10.9376C15.0997 10.9376 27.2131 10.9376 39.3269 10.9376H39.5325C39.6482 10.5028 39.5386 8.84296 39.3563 8.26709C39.0822 7.40186 38.6072 6.66217 37.9222 6.05793C37.5568 5.73559 37.1541 5.46822 36.6755 5.26043Z" fill="#A50C0C"/>
<path d="M28.1268 20.129C28.1268 19.5624 28.1329 18.9953 28.1232 18.4287C28.1204 18.2645 28.1576 18.206 28.3368 18.2074C29.476 18.2156 30.6156 18.2149 31.7548 18.2081C31.921 18.2071 31.9794 18.2436 31.9783 18.4198C31.9705 19.5535 31.9705 20.6871 31.9783 21.8208C31.9794 21.9914 31.921 22.0243 31.7638 22.0236C30.6245 22.018 29.4849 22.0155 28.3457 22.0254C28.1548 22.0272 28.12 21.9655 28.1232 21.7942C28.1336 21.2393 28.1272 20.6843 28.1272 20.1294L28.1268 20.129Z" fill="#A50C0C"/>
<path d="M31.9735 27.8114C31.9735 28.3841 31.9689 28.9568 31.9767 29.5294C31.9789 29.6784 31.9302 29.7181 31.7837 29.7174C30.6265 29.7121 29.4694 29.7117 28.3126 29.7174C28.161 29.7181 28.1231 29.6706 28.1238 29.5263C28.1292 28.3809 28.1292 27.2355 28.1238 26.0905C28.1231 25.9419 28.1689 25.9019 28.3162 25.9022C29.4733 25.9075 30.6305 25.9075 31.7872 25.9022C31.9384 25.9015 31.9789 25.949 31.9771 26.0937C31.9699 26.6664 31.9742 27.2391 31.9742 27.8118L31.9735 27.8114Z" fill="#A50C0C"/>
<path d="M30.0501 37.4074C29.4654 37.4074 28.8811 37.4039 28.2965 37.4103C28.1636 37.4117 28.1231 37.373 28.1238 37.2397C28.1288 36.0827 28.1284 34.9252 28.1238 33.7682C28.1234 33.637 28.1614 33.5958 28.2957 33.5962C29.4647 33.6008 30.634 33.6004 31.803 33.5962C31.9355 33.5958 31.9771 33.6338 31.9764 33.7664C31.9717 34.9235 31.9721 36.0809 31.9764 37.2379C31.9767 37.3688 31.9384 37.4113 31.8037 37.4099C31.2194 37.4035 30.6347 37.4071 30.0501 37.4071V37.4074Z" fill="#A50C0C"/>
<path d="M10.3489 22.0035V18.2245H14.1678V22.0035H10.3489Z" fill="#A50C0C"/>
<path d="M10.353 25.9171H14.1684V29.6982H10.353V25.9171Z" fill="#A50C0C"/>
<path d="M14.1608 37.3974H10.353V33.6106H14.1608V37.3974Z" fill="#A50C0C"/>
<path d="M19.2297 35.4921C19.2297 34.9251 19.2337 34.3577 19.2269 33.7907C19.2254 33.6517 19.2544 33.5946 19.4117 33.5953C20.5696 33.6017 21.7274 33.6014 22.8853 33.5953C23.0347 33.5946 23.0777 33.6393 23.0769 33.7858C23.0716 34.9318 23.0723 36.0779 23.0762 37.224C23.0766 37.3559 23.0469 37.4112 22.8985 37.4105C21.7349 37.4052 20.571 37.4052 19.4071 37.4105C19.263 37.4112 19.2254 37.3655 19.2269 37.2286C19.2333 36.6499 19.2297 36.0708 19.2297 35.4918V35.4921Z" fill="#A50C0C"/>
<path d="M19.2444 18.2248H23.074V18.427C23.074 19.5553 23.0715 20.6836 23.0769 21.812C23.0776 21.9673 23.0439 22.0258 22.8713 22.0244C21.7195 22.0166 20.5674 22.0194 19.4156 22.0216C19.3028 22.0216 19.2261 22.0201 19.2268 21.8677C19.2325 20.6922 19.23 19.5163 19.2308 18.3408C19.2308 18.3064 19.2386 18.2716 19.2447 18.2245L19.2444 18.2248Z" fill="#A50C0C"/>
<path d="M19.2451 25.9183H23.074C23.074 25.9942 23.074 26.0577 23.074 26.1212C23.074 27.2495 23.0712 28.3778 23.0773 29.5058C23.078 29.6636 23.0414 29.7189 22.8706 29.7175C21.7188 29.7101 20.567 29.7129 19.4153 29.715C19.3013 29.715 19.2261 29.7108 19.2268 29.5597C19.2322 28.3842 19.2297 27.2087 19.2304 26.0332C19.2304 25.9988 19.239 25.9644 19.2451 25.918V25.9183Z" fill="#A50C0C"/>
</svg>
