<svg width="24" height="24" viewBox="0 0 24 24" fill="none" xmlns="http://www.w3.org/2000/svg">
<path d="M16.2923 6.29318L6.29248 16.293L7.70668 17.7072L17.7065 7.70738L16.2923 6.29318Z" fill="#303030"/>
<path d="M10 7H8V9H10V7Z" fill="#303030"/>
<path d="M16 15H14V17H16V15Z" fill="#303030"/>
<path d="M12 0C9.20001 0 6.47402 0.986999 4.32202 2.78L5.60202 4.31599C7.39502 2.823 9.66701 2 12 2C17.514 2 22 6.48599 22 12C22 14.333 21.177 16.605 19.684 18.397L21.22 19.677C23.013 17.526 24 14.8 24 12C24 5.38299 18.617 0 12 0Z" fill="#303030"/>
<path d="M12 22C6.48599 22 2 17.514 2 12C2 9.66699 2.823 7.39499 4.31599 5.603L2.78 4.323C0.986999 6.47399 0 9.19999 0 12C0 18.617 5.38299 24 12 24C14.8 24 17.526 23.013 19.678 21.22L18.398 19.684C16.605 21.177 14.333 22 12 22Z" fill="#303030"/>
</svg>
