<svg width="38" height="38" viewBox="0 0 38 38" fill="none" xmlns="http://www.w3.org/2000/svg">
<path d="M17.8044 0C18.596 0 19.3869 0 20.1785 0C20.2863 0.021571 20.3933 0.0476051 20.5011 0.0639693C21.3552 0.189676 22.2204 0.264059 23.0625 0.445554C34.583 2.93143 41.0907 15.4359 36.5335 26.31C32.9745 34.8015 24.04 39.4765 14.9925 37.582C7.48731 36.0095 1.5825 29.8692 0.286916 22.2799C0.16873 21.5882 0.0943998 20.8882 0 20.1927C0 19.4006 0 18.6091 0 17.8169C0.121159 16.9757 0.211842 16.1284 0.367936 15.2931C1.7817 7.72392 8.09682 1.54121 15.6815 0.292325C16.3862 0.176288 17.0968 0.0966978 17.8044 0ZM35.5084 19.019C35.5411 9.94277 28.1267 2.50968 19.0056 2.47546C9.93799 2.44199 2.50717 9.86466 2.47372 18.99C2.44101 28.0639 9.85623 35.4985 18.9766 35.535C28.0427 35.5707 35.4757 28.1458 35.5084 19.019Z" fill="#A50C0C"/>
<path d="M26.5211 25.7134C25.8923 26.2661 25.291 26.7957 24.6688 27.3431C23.8133 26.3709 22.9726 25.4159 22.1334 24.4608C20.7457 22.8816 19.3557 21.304 17.9776 19.7166C17.8594 19.5805 17.7568 19.3752 17.7568 19.2019C17.7442 15.453 17.7472 11.7041 17.7479 7.95522C17.7479 7.88158 17.7568 7.80794 17.7635 7.69934H20.2372C20.2372 7.84662 20.2372 7.99018 20.2372 8.13374C20.2372 11.4743 20.2402 14.8148 20.2313 18.1553C20.2305 18.4358 20.3131 18.6403 20.4967 18.8486C22.4449 21.0548 24.3849 23.2684 26.3271 25.4806C26.3836 25.5445 26.4364 25.6115 26.5219 25.7134H26.5211Z" fill="#A50C0C"/>
</svg>
