<svg width="19" height="19" viewBox="0 0 19 19" fill="none" xmlns="http://www.w3.org/2000/svg">
<path d="M8.79794 0C9.26894 0 9.73994 0 10.2065 0C10.4998 0.0399906 10.793 0.0755379 11.0819 0.124415C12.7037 0.40435 14.1789 1.03087 15.4408 2.08396C18.2535 4.43452 19.3955 7.45159 18.8756 11.0774C18.6401 12.7126 17.9736 14.1833 16.916 15.4542C14.6366 18.1824 11.7039 19.3421 8.17587 18.92C6.42516 18.7112 4.86108 18.0047 3.5014 16.8805C1.63073 15.3342 0.493218 13.3569 0.111085 10.9574C0.0710945 10.7086 0.0399906 10.4598 0 10.2109C0 9.73994 0 9.26894 0 8.80239C0.0133302 8.76239 0.0266604 8.7224 0.0355472 8.68241C0.111085 8.20697 0.159963 7.72708 0.266604 7.26052C1.09752 3.65248 4.18124 0.755379 7.81595 0.146632C8.14032 0.0933115 8.46913 0.0488775 8.79794 0ZM9.5 1.33302C4.98994 1.33302 1.33302 4.99883 1.33302 9.50444C1.33302 14.0101 4.99883 17.6714 9.50444 17.6714C14.0145 17.6714 17.6714 14.0056 17.6714 9.5C17.6714 4.98994 14.0056 1.33302 9.5 1.33302Z" fill="white"/>
<path d="M8.54017 10.873C8.54017 10.1354 8.54017 9.40224 8.54017 8.66464C8.54017 8.26917 8.66903 8.09144 9.05116 7.98479C9.42885 7.87815 9.79766 7.89148 10.1531 8.06478C10.3709 8.16697 10.4864 8.33582 10.4864 8.59354C10.4864 10.1265 10.4864 11.6639 10.4864 13.1969C10.4864 13.4013 10.4064 13.5524 10.242 13.6679C9.85542 13.9434 9.23779 13.9656 8.83788 13.7123C8.64237 13.5879 8.53573 13.428 8.54017 13.1791C8.54906 12.4104 8.54017 11.6462 8.54017 10.8775V10.873Z" fill="white"/>
<path d="M9.43334 4.97656C10.1132 4.97656 10.5842 5.44756 10.5042 5.9941C10.4598 6.29625 10.2731 6.50509 10.011 6.64728C9.56219 6.88723 9.00233 6.78059 8.6824 6.4029C8.39358 6.0652 8.40691 5.61641 8.71795 5.30093C8.93123 5.0832 9.19784 4.98989 9.43778 4.97656H9.43334Z" fill="white"/>
</svg>
