<svg width="46" height="57" viewBox="0 0 46 57" fill="none" xmlns="http://www.w3.org/2000/svg">
<g clip-path="url(#clip0_512_101)">
<path d="M0.03 27.2401V30.3001H45.53V27.2401H0.03ZM0.72 32.2801V54.1001H3.85V32.2801H0.72ZM41.63 32.3001C41.7 32.7101 41.81 33.0401 41.81 33.3801C41.81 39.9901 41.81 46.6001 41.81 53.2101C41.81 53.5101 41.84 53.8001 41.86 54.1001H44.87V32.3001H41.62H41.63ZM33.61 32.3001V54.0901H36.72V32.3001H33.61ZM8.81 32.3001V54.1001H11.93V32.3001H8.81ZM0 26.7901H45.53V25.5901H0V26.7901ZM12.52 55.9101C11.06 55.8101 9.6 55.7001 8.16 55.9701C8.88 56.5501 12.04 56.5001 12.52 55.9101ZM2.27 56.3901C2.85 56.3901 3.44 56.4101 4.02 56.3701C4.17 56.3601 4.32 56.1601 4.46 56.0501C4.32 55.9601 4.18 55.8001 4.04 55.8001C2.87 55.7801 1.71 55.7801 0.54 55.8001C0.39 55.8001 0.25 56.0101 0.1 56.1201C0.24 56.2101 0.38 56.3701 0.52 56.3701C1.1 56.4001 1.69 56.3801 2.27 56.3801V56.3901ZM16.18 30.8101C16.99 31.5301 20.32 31.4701 20.77 30.8101H16.18ZM32.82 30.8101C33.56 31.5101 36.9 31.4701 37.39 30.8101H32.82ZM41.16 30.8101C41.15 30.9201 41.14 31.0301 41.13 31.1501C42.4 31.5401 43.73 31.2401 45.02 31.3101C45.19 31.3101 45.37 31.1401 45.54 31.0401C45.51 30.9601 45.49 30.8901 45.46 30.8101H41.15H41.16ZM40.96 55.9601C41.77 56.5601 45 56.5201 45.74 55.8101C44.04 55.8201 42.58 55.6301 40.96 55.9601ZM24.41 30.8201C25.31 31.5201 28.57 31.4601 29.1 30.8201H24.41ZM8.27 30.8101C8.22 30.8901 8.17 30.9701 8.11 31.0601C8.36 31.1501 8.6 31.3101 8.86 31.3201C11.52 31.4601 12.21 31.3801 12.57 30.8101H8.27ZM4.54 30.8301H0.03C0.62 31.5001 3.96 31.5001 4.54 30.8301ZM32.81 55.9301C33.51 56.5401 36.75 56.5401 37.51 55.9301H32.81ZM37.3 31.9401C36.54 31.3801 33.78 31.3701 32.92 31.9401H37.3ZM41.22 31.5901C41.86 32.3101 44.84 32.2801 45.28 31.5901H41.22ZM20.6 31.6301H16.45C17.15 32.2801 20 32.2601 20.6 31.6301ZM12.37 55.1701H8.19C9.02 55.8501 11.84 55.8001 12.37 55.1701ZM24.71 31.6201C25.43 32.2701 28.25 32.2601 28.91 31.6201H24.71ZM12.39 31.6301H8.21C9 32.2801 11.81 32.2501 12.39 31.6301ZM0.11 31.5801C0.96 32.3301 3.88 32.2401 4.2 31.5801H0.13H0.11ZM0.42 55.1101C0.36 55.1801 0.31 55.2401 0.25 55.3101C0.46 55.4201 0.67 55.6101 0.89 55.6301C2.76 55.8301 3.87 55.6701 4.24 55.1101H0.43H0.42ZM37.1 55.1301H33.07C33.73 55.8601 36.69 55.8201 37.1 55.1301ZM41.35 55.1001C41.34 55.2201 41.32 55.3301 41.31 55.4501C42.44 55.8601 43.65 55.5701 44.81 55.6301C44.97 55.6301 45.14 55.4301 45.3 55.3101C45.27 55.2401 45.24 55.1701 45.21 55.1001H41.35ZM8.5 54.4401C9.21 55.0801 11.58 55.0601 12.1 54.4401H8.5ZM17.14 32.3001V54.1001H20.26V32.3001H17.14ZM20.85 55.9101C19.39 55.8101 17.93 55.7001 16.49 55.9701C17.21 56.5501 20.37 56.5001 20.85 55.9101ZM20.71 55.1601H16.53C17.36 55.8401 20.18 55.7901 20.71 55.1601ZM16.84 54.4401C17.55 55.0801 19.92 55.0601 20.44 54.4401H16.84ZM25.3 32.3001V54.1001H28.42V32.3001H25.3ZM29.01 55.9101C27.55 55.8101 26.09 55.7001 24.65 55.9701C25.37 56.5501 28.53 56.5001 29.01 55.9101ZM28.87 55.1601H24.69C25.52 55.8401 28.34 55.7901 28.87 55.1601ZM25 54.4401C25.71 55.0801 28.08 55.0601 28.6 54.4401H25ZM0.37 54.4501C1.16 55.0501 3.38 55.0501 4.12 54.4501H0.39H0.37ZM36.92 54.4501H33.26C34.01 55.0701 36.28 55.0601 36.92 54.4501ZM44.98 54.7601C44.98 54.6601 44.98 54.5701 44.98 54.4701H41.55C41.55 54.5701 41.55 54.6601 41.55 54.7601H44.98Z" fill="#303030"/>
<path d="M37.7301 15.59H43.2201C42.6101 16.77 42.0601 17.82 41.5501 18.79C41.2501 18.63 41.0001 18.4 40.7301 18.37C40.2101 18.31 39.6801 18.35 39.1601 18.35C27.4201 18.35 15.6801 18.35 3.94006 18.36C3.56006 18.36 3.18006 18.52 2.66006 18.63C2.23006 17.81 1.68006 16.76 1.06006 15.59H7.82006C8.56006 13.93 7.28006 12.72 7.04006 11.19H22.2101V0C22.2901 0 22.3601 0 22.4401 0V11.15H38.4701C38.3401 12.68 36.9301 13.91 37.7401 15.59H37.7301ZM10.2501 14.6H35.0001C35.1901 13.71 34.5401 13.94 34.1601 13.94C26.5601 13.93 18.9701 13.94 11.3701 13.94C11.2201 13.94 11.0301 13.89 10.9101 13.96C10.7201 14.08 10.5801 14.27 10.2501 14.61V14.6ZM33.6301 4.95H22.3001V0.23H33.6301V4.95Z" fill="#303030"/>
<path d="M41.02 18.6599V21.6299H3.33997V18.6599H41.02Z" fill="#303030"/>
</g>
<defs>
<clipPath id="clip0_512_101">
<rect width="45.73" height="56.39" fill="white"/>
</clipPath>
</defs>
</svg>
