<svg width="41" height="41" viewBox="0 0 41 41" fill="none" xmlns="http://www.w3.org/2000/svg">
<g clip-path="url(#clip0_512_109)">
<path d="M18.985 0C20.0014 0 21.0178 0 22.0246 0C22.6574 0.0862956 23.2902 0.163003 23.9135 0.268475C27.4132 0.872544 30.5966 2.22451 33.3197 4.49696C39.3891 9.56922 41.8534 16.0797 40.7315 23.9039C40.2233 27.4324 38.7851 30.6062 36.503 33.3485C31.5842 39.2357 25.2558 41.7383 17.6427 40.8274C13.8648 40.3768 10.4897 38.8522 7.55566 36.4263C3.51894 33.0896 1.06431 28.8227 0.23971 23.645C0.153414 23.108 0.0862956 22.5711 0 22.0341C0 21.0178 0 20.0014 0 18.9946C0.0287652 18.9083 0.0575304 18.822 0.0767072 18.7357C0.23971 17.7098 0.345182 16.6742 0.575304 15.6674C2.36834 7.88167 9.02269 1.63003 16.866 0.316417C17.566 0.201356 18.2755 0.105472 18.985 0ZM20.5 2.87652C10.7678 2.87652 2.87652 10.787 2.87652 20.5096C2.87652 30.2322 10.787 38.1331 20.5096 38.1331C30.2418 38.1331 38.1331 30.2226 38.1331 20.5C38.1331 10.7678 30.2226 2.87652 20.5 2.87652Z" fill="#303030"/>
<path d="M18.4289 23.4628C18.4289 21.8711 18.4289 20.289 18.4289 18.6973C18.4289 17.844 18.7069 17.4604 19.5315 17.2303C20.3466 17.0002 21.1424 17.029 21.9095 17.4029C22.3793 17.6234 22.6286 17.9878 22.6286 18.5439C22.6286 21.8519 22.6286 25.1695 22.6286 28.4775C22.6286 28.9186 22.456 29.2446 22.1012 29.4939C21.267 30.0884 19.9343 30.1363 19.0713 29.5898C18.6494 29.3213 18.4193 28.9761 18.4289 28.4392C18.4481 26.7804 18.4289 25.1312 18.4289 23.4724V23.4628Z" fill="#303030"/>
<path d="M20.3561 10.739C21.8232 10.739 22.8395 11.7554 22.6669 12.9348C22.5711 13.5868 22.1684 14.0374 21.6026 14.3443C20.6342 14.862 19.4261 14.6319 18.7357 13.8169C18.1125 13.0882 18.1412 12.1197 18.8124 11.439C19.2727 10.9691 19.848 10.7678 20.3657 10.739H20.3561Z" fill="#303030"/>
</g>
<defs>
<clipPath id="clip0_512_109">
<rect width="41" height="41" fill="white"/>
</clipPath>
</defs>
</svg>
